{
	"asset":{
		"version":"2.0",
		"generator":"Houdini GLTF 2.0 Exporter 17.0 Alpha"
	},
	"accessors":[
		{
			"bufferView":0,
			"componentType":5123,
			"count":960,
			"type":"SCALAR",
			"min":[0
			],
			"max":[959
			]
		},
		{
			"bufferView":1,
			"componentType":5126,
			"count":960,
			"type":"VEC3",
			"min":[-0.486796111,-0.548344851,-5.32977104
			],
			"max":[0.48679617,1.51877713,2.42608619
			]
		},
		{
			"bufferView":2,
			"componentType":5126,
			"count":960,
			"type":"VEC2",
			"min":[0.000974658877,0.0429388881
			],
			"max":[0.998386919,0.999025345
			]
		},
		{
			"bufferView":3,
			"componentType":5126,
			"count":960,
			"type":"VEC3",
			"min":[-1,-1,-1
			],
			"max":[1,1,1
			]
		},
		{
			"bufferView":4,
			"componentType":5123,
			"count":432,
			"type":"SCALAR",
			"min":[0
			],
			"max":[73
			]
		},
		{
			"bufferView":5,
			"componentType":5126,
			"count":74,
			"type":"VEC3",
			"min":[-0.437796116,-0.499344349,-5.32977104
			],
			"max":[0.437796116,1.46977711,2.42608595
			]
		},
		{
			"bufferView":6,
			"componentType":5123,
			"count":474,
			"type":"SCALAR",
			"min":[0
			],
			"max":[473
			]
		},
		{
			"bufferView":7,
			"componentType":5126,
			"count":474,
			"type":"VEC3",
			"min":[-10.543087,0,-10.3613586
			],
			"max":[-0.474167258,13.2106352,11.4193048
			]
		},
		{
			"bufferView":8,
			"componentType":5126,
			"count":474,
			"type":"VEC2",
			"min":[0.000974658877,-0.0734568834
			],
			"max":[1.04490864,0.999025345
			]
		},
		{
			"bufferView":9,
			"componentType":5126,
			"count":474,
			"type":"VEC3",
			"min":[-1,-1,-1
			],
			"max":[1,1,1
			]
		},
		{
			"bufferView":10,
			"componentType":5123,
			"count":474,
			"type":"SCALAR",
			"min":[0
			],
			"max":[80
			]
		},
		{
			"bufferView":11,
			"componentType":5126,
			"count":81,
			"type":"VEC3",
			"min":[-10.543087,0,-10.3613586
			],
			"max":[-0.474167258,13.2106352,11.4193048
			]
		},
		{
			"bufferView":12,
			"componentType":5121,
			"count":36,
			"type":"SCALAR",
			"min":[0
			],
			"max":[7
			]
		},
		{
			"bufferView":13,
			"componentType":5126,
			"count":8,
			"type":"VEC3",
			"min":[-0.536079109,-0.399032563,0.0201145168
			],
			"max":[0.58166492,0.440990835,0.485468715
			]
		},
		{
			"bufferView":14,
			"componentType":5123,
			"count":14679,
			"type":"SCALAR",
			"min":[0
			],
			"max":[14678
			]
		},
		{
			"bufferView":15,
			"componentType":5126,
			"count":14679,
			"type":"VEC3",
			"min":[-1,-0.998460412,-1
			],
			"max":[1,0.999954879,0.999777138
			]
		},
		{
			"bufferView":16,
			"componentType":5126,
			"count":14679,
			"type":"VEC3",
			"min":[-0.536079109,-0.798050523,0.0201145168
			],
			"max":[0.58166492,0.440990835,0.497243136
			]
		},
		{
			"bufferView":17,
			"componentType":5126,
			"count":14679,
			"type":"VEC4",
			"min":[-0.999889135,-1,-1,1
			],
			"max":[1,1,1,1
			]
		},
		{
			"bufferView":18,
			"componentType":5126,
			"count":14679,
			"type":"VEC2",
			"min":[0.00149102195,0.00149101019
			],
			"max":[0.983019233,0.997891366
			]
		},
		{
			"bufferView":19,
			"componentType":5121,
			"count":96,
			"type":"SCALAR",
			"min":[0
			],
			"max":[95
			]
		},
		{
			"bufferView":20,
			"componentType":5126,
			"count":96,
			"type":"VEC3",
			"min":[-0.792842388,3.89648223,-8.71885967
			],
			"max":[-0.474167228,12.5139952,9.91806793
			]
		},
		{
			"bufferView":21,
			"componentType":5126,
			"count":96,
			"type":"SCALAR",
			"min":[0.5
			],
			"max":[1
			]
		},
		{
			"bufferView":22,
			"componentType":5126,
			"count":96,
			"type":"VEC3",
			"min":[1,-1.49011665e-08,-8.74227908e-08
			],
			"max":[1,7.4505806e-09,-7.99722102e-08
			]
		},
		{
			"bufferView":23,
			"componentType":5126,
			"count":96,
			"type":"VEC3",
			"min":[0.5,0,0
			],
			"max":[1,0,0
			]
		},
		{
			"bufferView":24,
			"componentType":5123,
			"count":438,
			"type":"SCALAR",
			"min":[0
			],
			"max":[437
			]
		},
		{
			"bufferView":25,
			"componentType":5126,
			"count":438,
			"type":"VEC3",
			"min":[-0.63628906,-0.000112628935,-0.00521888724
			],
			"max":[0.63628906,2.5686841,0.179850206
			]
		},
		{
			"bufferView":26,
			"componentType":5126,
			"count":438,
			"type":"VEC2",
			"min":[0.000974658877,0.103740871
			],
			"max":[0.972386718,0.999025345
			]
		},
		{
			"bufferView":27,
			"componentType":5121,
			"count":36,
			"type":"SCALAR",
			"min":[0
			],
			"max":[7
			]
		},
		{
			"bufferView":28,
			"componentType":5126,
			"count":8,
			"type":"VEC3",
			"min":[-0.63628906,-0.000112628935,-0.00521888724
			],
			"max":[0.63628906,2.5686841,0.179850206
			]
		},
		{
			"bufferView":29,
			"componentType":5121,
			"count":48,
			"type":"SCALAR",
			"min":[0
			],
			"max":[47
			]
		},
		{
			"bufferView":30,
			"componentType":5126,
			"count":48,
			"type":"VEC3",
			"min":[-0.972223759,0,-11.728075
			],
			"max":[5,0,12.0459328
			]
		},
		{
			"bufferView":31,
			"componentType":5126,
			"count":48,
			"type":"VEC2",
			"min":[0.000974658877,0.174553633
			],
			"max":[0.998109162,0.999025345
			]
		},
		{
			"bufferView":32,
			"componentType":5121,
			"count":48,
			"type":"SCALAR",
			"min":[0
			],
			"max":[17
			]
		},
		{
			"bufferView":33,
			"componentType":5126,
			"count":18,
			"type":"VEC3",
			"min":[-0.972223759,0,-11.728075
			],
			"max":[5,0,12.0459328
			]
		},
		{
			"bufferView":34,
			"componentType":5121,
			"count":3,
			"type":"SCALAR",
			"min":[0
			],
			"max":[2
			]
		},
		{
			"bufferView":35,
			"componentType":5126,
			"count":3,
			"type":"VEC3",
			"min":[0,0,0
			],
			"max":[0,0.100000001,0.100000001
			]
		},
		{
			"bufferView":36,
			"componentType":5126,
			"count":3,
			"type":"SCALAR",
			"min":[0.212180987
			],
			"max":[0.923266411
			]
		},
		{
			"bufferView":37,
			"componentType":5126,
			"count":3,
			"type":"SCALAR",
			"min":[2
			],
			"max":[2
			]
		},
		{
			"bufferView":38,
			"componentType":5121,
			"count":3,
			"type":"SCALAR",
			"min":[0
			],
			"max":[2
			]
		},
		{
			"bufferView":39,
			"componentType":5126,
			"count":3,
			"type":"VEC3",
			"min":[0,0,0
			],
			"max":[0,0.100000001,0.100000001
			]
		},
		{
			"bufferView":40,
			"componentType":5126,
			"count":3,
			"type":"SCALAR",
			"min":[0.055777777
			],
			"max":[0.558111131
			]
		},
		{
			"bufferView":41,
			"componentType":5126,
			"count":3,
			"type":"SCALAR",
			"min":[2
			],
			"max":[2
			]
		},
		{
			"bufferView":42,
			"componentType":5121,
			"count":3,
			"type":"SCALAR",
			"min":[0
			],
			"max":[2
			]
		},
		{
			"bufferView":43,
			"componentType":5126,
			"count":3,
			"type":"VEC3",
			"min":[0,0,0
			],
			"max":[0,0.100000001,0.100000001
			]
		},
		{
			"bufferView":44,
			"componentType":5126,
			"count":3,
			"type":"SCALAR",
			"min":[0.342777759
			],
			"max":[0.845111072
			]
		},
		{
			"bufferView":45,
			"componentType":5126,
			"count":3,
			"type":"SCALAR",
			"min":[5
			],
			"max":[5
			]
		},
		{
			"bufferView":46,
			"componentType":5121,
			"count":3,
			"type":"SCALAR",
			"min":[0
			],
			"max":[2
			]
		},
		{
			"bufferView":47,
			"componentType":5126,
			"count":3,
			"type":"VEC3",
			"min":[0,0,0
			],
			"max":[0,0.100000001,0.100000001
			]
		},
		{
			"bufferView":48,
			"componentType":5126,
			"count":3,
			"type":"SCALAR",
			"min":[-0.15419279
			],
			"max":[0.464807212
			]
		},
		{
			"bufferView":49,
			"componentType":5126,
			"count":3,
			"type":"SCALAR",
			"min":[12
			],
			"max":[12
			]
		}
	],
	"buffers":[
		{
			"uri":"scene_data.bin",
			"byteLength":801744,
			"name":"main_buffer"
		}
	],
	"bufferViews":[
		{
			"buffer":0,
			"byteLength":1920,
			"target":34963
		},
		{
			"buffer":0,
			"byteOffset":1920,
			"byteLength":11520,
			"target":34962
		},
		{
			"buffer":0,
			"byteOffset":13440,
			"byteLength":7680,
			"target":34962
		},
		{
			"buffer":0,
			"byteOffset":21120,
			"byteLength":11520,
			"target":34962
		},
		{
			"buffer":0,
			"byteOffset":32640,
			"byteLength":864,
			"target":34963
		},
		{
			"buffer":0,
			"byteOffset":33504,
			"byteLength":888,
			"target":34962
		},
		{
			"buffer":0,
			"byteOffset":34392,
			"byteLength":948,
			"target":34963
		},
		{
			"buffer":0,
			"byteOffset":35340,
			"byteLength":5688,
			"target":34962
		},
		{
			"buffer":0,
			"byteOffset":41028,
			"byteLength":3792,
			"target":34962
		},
		{
			"buffer":0,
			"byteOffset":44820,
			"byteLength":5688,
			"target":34962
		},
		{
			"buffer":0,
			"byteOffset":50508,
			"byteLength":948,
			"target":34963
		},
		{
			"buffer":0,
			"byteOffset":51456,
			"byteLength":972,
			"target":34962
		},
		{
			"buffer":0,
			"byteOffset":52428,
			"byteLength":36,
			"target":34963
		},
		{
			"buffer":0,
			"byteOffset":52464,
			"byteLength":96,
			"target":34962
		},
		{
			"buffer":0,
			"byteOffset":52560,
			"byteLength":29358,
			"target":34963
		},
		{
			"buffer":0,
			"byteOffset":81920,
			"byteLength":176148,
			"target":34962
		},
		{
			"buffer":0,
			"byteOffset":258068,
			"byteLength":176148,
			"target":34962
		},
		{
			"buffer":0,
			"byteOffset":434216,
			"byteLength":234864,
			"target":34962
		},
		{
			"buffer":0,
			"byteOffset":669080,
			"byteLength":117432,
			"target":34962
		},
		{
			"buffer":0,
			"byteOffset":786512,
			"byteLength":96,
			"target":34963
		},
		{
			"buffer":0,
			"byteOffset":786608,
			"byteLength":1152,
			"target":34962
		},
		{
			"buffer":0,
			"byteOffset":787760,
			"byteLength":384,
			"target":34962
		},
		{
			"buffer":0,
			"byteOffset":788144,
			"byteLength":1152,
			"target":34962
		},
		{
			"buffer":0,
			"byteOffset":789296,
			"byteLength":1152,
			"target":34962
		},
		{
			"buffer":0,
			"byteOffset":790448,
			"byteLength":876,
			"target":34963
		},
		{
			"buffer":0,
			"byteOffset":791324,
			"byteLength":5256,
			"target":34962
		},
		{
			"buffer":0,
			"byteOffset":796580,
			"byteLength":3504,
			"target":34962
		},
		{
			"buffer":0,
			"byteOffset":800084,
			"byteLength":36,
			"target":34963
		},
		{
			"buffer":0,
			"byteOffset":800120,
			"byteLength":96,
			"target":34962
		},
		{
			"buffer":0,
			"byteOffset":800216,
			"byteLength":48,
			"target":34963
		},
		{
			"buffer":0,
			"byteOffset":800264,
			"byteLength":576,
			"target":34962
		},
		{
			"buffer":0,
			"byteOffset":800840,
			"byteLength":384,
			"target":34962
		},
		{
			"buffer":0,
			"byteOffset":801224,
			"byteLength":48,
			"target":34963
		},
		{
			"buffer":0,
			"byteOffset":801272,
			"byteLength":216,
			"target":34962
		},
		{
			"buffer":0,
			"byteOffset":801488,
			"byteLength":3,
			"target":34963
		},
		{
			"buffer":0,
			"byteOffset":801492,
			"byteLength":36,
			"target":34962
		},
		{
			"buffer":0,
			"byteOffset":801528,
			"byteLength":12,
			"target":34962
		},
		{
			"buffer":0,
			"byteOffset":801540,
			"byteLength":12,
			"target":34962
		},
		{
			"buffer":0,
			"byteOffset":801552,
			"byteLength":3,
			"target":34963
		},
		{
			"buffer":0,
			"byteOffset":801556,
			"byteLength":36,
			"target":34962
		},
		{
			"buffer":0,
			"byteOffset":801592,
			"byteLength":12,
			"target":34962
		},
		{
			"buffer":0,
			"byteOffset":801604,
			"byteLength":12,
			"target":34962
		},
		{
			"buffer":0,
			"byteOffset":801616,
			"byteLength":3,
			"target":34963
		},
		{
			"buffer":0,
			"byteOffset":801620,
			"byteLength":36,
			"target":34962
		},
		{
			"buffer":0,
			"byteOffset":801656,
			"byteLength":12,
			"target":34962
		},
		{
			"buffer":0,
			"byteOffset":801668,
			"byteLength":12,
			"target":34962
		},
		{
			"buffer":0,
			"byteOffset":801680,
			"byteLength":3,
			"target":34963
		},
		{
			"buffer":0,
			"byteOffset":801684,
			"byteLength":36,
			"target":34962
		},
		{
			"buffer":0,
			"byteOffset":801720,
			"byteLength":12,
			"target":34962
		},
		{
			"buffer":0,
			"byteOffset":801732,
			"byteLength":12,
			"target":34962
		}
	],
	"nodes":[
		{
			"children":[1,4,7,11,14,17,19,21,23
			],
			"name":"Root"
		},
		{
			"children":[2,3
			],
			"matrix":[1,0,0,0,0,1,0,0,0,0,1,0,-0.503727973,5.0999999,-4.49171638,1
			],
			"name":"ventPipe_01"
		},
		{
			"name":"mesh",
			"mesh":0
		},
		{
			"name":"collision",
			"mesh":1
		},
		{
			"children":[5,6
			],
			"name":"building_01"
		},
		{
			"name":"mesh",
			"mesh":2
		},
		{
			"name":"collision",
			"mesh":3
		},
		{
			"children":[8,9,10
			],
			"name":"airCon_01"
		},
		{
			"name":"collision",
			"mesh":4
		},
		{
			"name":"mesh",
			"mesh":5
		},
		{
			"name":"instances",
			"mesh":6
		},
		{
			"children":[12,13
			],
			"matrix":[6.12323426e-17,0,-1,0,0,1,0,0,1,0,6.12323426e-17,0,-0.897735357,0,0.279987991,1
			],
			"name":"door_01"
		},
		{
			"name":"mesh",
			"mesh":7
		},
		{
			"name":"collision",
			"mesh":8
		},
		{
			"children":[15,16
			],
			"name":"road_01"
		},
		{
			"name":"mesh",
			"mesh":9
		},
		{
			"name":"collision",
			"mesh":10
		},
		{
			"children":[18
			],
			"matrix":[1,0,0,0,0,1,0,0,0,0,1,0,0.978321075,3.61750984,6.85006142,1
			],
			"name":"lgt_point_01"
		},
		{
			"name":"light",
			"mesh":11
		},
		{
			"children":[20
			],
			"matrix":[1,0,0,0,0,1,0,0,0,0,1,0,0.565222263,5.73967457,6.88189507,1
			],
			"name":"lgt_point_02"
		},
		{
			"name":"light",
			"mesh":12
		},
		{
			"children":[22
			],
			"matrix":[1,0,0,0,0,1,0,0,0,0,1,0,3.11232066,5.58421421,-7.36295652,1
			],
			"name":"lgt_point_03"
		},
		{
			"name":"light",
			"mesh":13
		},
		{
			"children":[24
			],
			"matrix":[1,0,0,0,0,1,0,0,0,0,1,0,6.25953484,8.02008915,1.66054654,1
			],
			"name":"lgt_point_04"
		},
		{
			"name":"light",
			"mesh":14
		}
	],
	"meshes":[
		{
			"primitives":[
				{
					"attributes":{
						"NORMAL":3,
						"TEXCOORD_0":2,
						"POSITION":1
					},
					"indices":0,
					"material":0
				}
			]
		},
		{
			"primitives":[
				{
					"attributes":{
						"POSITION":5
					},
					"indices":4
				}
			]
		},
		{
			"primitives":[
				{
					"attributes":{
						"NORMAL":9,
						"TEXCOORD_0":8,
						"POSITION":7
					},
					"indices":6,
					"material":1
				}
			]
		},
		{
			"primitives":[
				{
					"attributes":{
						"POSITION":11
					},
					"indices":10
				}
			]
		},
		{
			"primitives":[
				{
					"attributes":{
						"POSITION":13
					},
					"indices":12
				}
			]
		},
		{
			"primitives":[
				{
					"attributes":{
						"TEXCOORD_0":18,
						"TANGENT":17,
						"POSITION":16,
						"NORMAL":15
					},
					"indices":14,
					"material":2
				}
			]
		},
		{
			"primitives":[
				{
					"attributes":{
						"NORMAL":22,
						"COLOR_0":23,
						"_uscale":21,
						"POSITION":20
					},
					"indices":19
				}
			]
		},
		{
			"primitives":[
				{
					"attributes":{
						"TEXCOORD_0":26,
						"POSITION":25
					},
					"indices":24,
					"material":3
				}
			]
		},
		{
			"primitives":[
				{
					"attributes":{
						"POSITION":28
					},
					"indices":27
				}
			]
		},
		{
			"primitives":[
				{
					"attributes":{
						"TEXCOORD_0":31,
						"POSITION":30
					},
					"indices":29,
					"material":4
				}
			]
		},
		{
			"primitives":[
				{
					"attributes":{
						"POSITION":33
					},
					"indices":32
				}
			]
		},
		{
			"primitives":[
				{
					"attributes":{
						"_intensity":37,
						"_color":36,
						"POSITION":35
					},
					"indices":34
				}
			]
		},
		{
			"primitives":[
				{
					"attributes":{
						"_intensity":41,
						"_color":40,
						"POSITION":39
					},
					"indices":38
				}
			]
		},
		{
			"primitives":[
				{
					"attributes":{
						"_intensity":45,
						"_color":44,
						"POSITION":43
					},
					"indices":42
				}
			]
		},
		{
			"primitives":[
				{
					"attributes":{
						"_intensity":49,
						"_color":48,
						"POSITION":47
					},
					"indices":46
				}
			]
		}
	],
	"materials":[
		{
			"name":"mat_ventPipe_01",
			"pbrMetallicRoughness":{
				"metallicFactor":0,
				"roughnessFactor":0.65200001,
				"baseColorTexture":{
					"index":0
				}
			}
		},
		{
			"name":"mat_building_01",
			"pbrMetallicRoughness":{
				"metallicFactor":0,
				"roughnessFactor":0.75,
				"baseColorTexture":{
					"index":1
				},
				"metallicRoughnessTexture":{
					"index":2
				}
			},
			"normalTexture":{
				"index":3
			}
		},
		{
			"name":"mat_airCon_01",
			"pbrMetallicRoughness":{
				"metallicFactor":0,
				"roughnessFactor":0.65200001,
				"baseColorTexture":{
					"index":4
				}
			},
			"normalTexture":{
				"index":5
			}
		},
		{
			"name":"mat_door_01",
			"pbrMetallicRoughness":{
				"metallicFactor":0,
				"roughnessFactor":0.65200001,
				"baseColorTexture":{
					"index":6
				}
			}
		},
		{
			"name":"mat_road_01",
			"pbrMetallicRoughness":{
				"metallicFactor":0,
				"roughnessFactor":0.65200001,
				"baseColorTexture":{
					"index":7
				}
			}
		}
	],
	"scenes":[
		{
			"nodes":[0
			]
		}
	],
	"textures":[
		{
			"source":0
		},
		{
			"source":1
		},
		{
			"source":2
		},
		{
			"source":3
		},
		{
			"source":4
		},
		{
			"source":5
		},
		{
			"source":6
		},
		{
			"source":7
		}
	],
	"images":[
		{
			"uri":"Steel_02_UV_H_CM_1.jpg",
			"mimeType":"image/jpeg"
		},
		{
			"uri":"wall_tex_01.jpg",
			"mimeType":"image/jpeg"
		},
		{
			"uri":"wall_tex_011.jpg",
			"mimeType":"image/jpeg"
		},
		{
			"uri":"wall_tex_norm_01.jpg",
			"mimeType":"image/jpeg"
		},
		{
			"uri":"air_conditioner_baseColor.jpg",
			"mimeType":"image/jpeg"
		},
		{
			"uri":"air_conditioner_normal.jpg",
			"mimeType":"image/jpeg"
		},
		{
			"uri":"gray_metal_01.jpg",
			"mimeType":"image/jpeg"
		},
		{
			"uri":"Asphalt_019_Diffuse.jpg",
			"mimeType":"image/jpeg"
		}
	],
	"scene":0
}
