{
	"asset":{
		"version":"2.0",
		"generator":"Houdini GLTF 2.0 Exporter 17.0 Alpha"
	},
	"accessors":[
		{
			"bufferView":0,
			"componentType":5123,
			"count":960,
			"type":"SCALAR",
			"min":[0
			],
			"max":[959
			]
		},
		{
			"bufferView":1,
			"componentType":5126,
			"count":960,
			"type":"VEC3",
			"min":[-4.86796093,-5.48344851,-53.2977104
			],
			"max":[4.86796188,15.1877708,24.2608624
			]
		},
		{
			"bufferView":2,
			"componentType":5126,
			"count":960,
			"type":"VEC3",
			"min":[-1,-1,-1
			],
			"max":[1,1,1
			]
		},
		{
			"bufferView":3,
			"componentType":5123,
			"count":432,
			"type":"SCALAR",
			"min":[0
			],
			"max":[73
			]
		},
		{
			"bufferView":4,
			"componentType":5126,
			"count":74,
			"type":"VEC3",
			"min":[-4.37796116,-4.99344349,-53.2977104
			],
			"max":[4.37796116,14.6977711,24.2608604
			]
		},
		{
			"bufferView":5,
			"componentType":5123,
			"count":348,
			"type":"SCALAR",
			"min":[0
			],
			"max":[347
			]
		},
		{
			"bufferView":6,
			"componentType":5126,
			"count":348,
			"type":"VEC3",
			"min":[-105.43087,-3.18294954,-103.702583
			],
			"max":[-4.74167252,132.106354,114.193047
			]
		},
		{
			"bufferView":7,
			"componentType":5126,
			"count":348,
			"type":"VEC3",
			"min":[-1,-1,-1
			],
			"max":[1,1,1
			]
		},
		{
			"bufferView":8,
			"componentType":5123,
			"count":132,
			"type":"SCALAR",
			"min":[0
			],
			"max":[23
			]
		},
		{
			"bufferView":9,
			"componentType":5126,
			"count":24,
			"type":"VEC3",
			"min":[-105.43087,-3.18294954,-103.583572
			],
			"max":[-7.92842388,132.106354,114.193047
			]
		}
	],
	"buffers":[
		{
			"uri":"scene_data.bin",
			"byteLength":36312,
			"name":"main_buffer"
		}
	],
	"bufferViews":[
		{
			"buffer":0,
			"byteLength":1920,
			"target":34963
		},
		{
			"buffer":0,
			"byteOffset":1920,
			"byteLength":11520,
			"target":34962
		},
		{
			"buffer":0,
			"byteOffset":13440,
			"byteLength":11520,
			"target":34962
		},
		{
			"buffer":0,
			"byteOffset":24960,
			"byteLength":864,
			"target":34963
		},
		{
			"buffer":0,
			"byteOffset":25824,
			"byteLength":888,
			"target":34962
		},
		{
			"buffer":0,
			"byteOffset":26712,
			"byteLength":696,
			"target":34963
		},
		{
			"buffer":0,
			"byteOffset":27408,
			"byteLength":4176,
			"target":34962
		},
		{
			"buffer":0,
			"byteOffset":31584,
			"byteLength":4176,
			"target":34962
		},
		{
			"buffer":0,
			"byteOffset":35760,
			"byteLength":264,
			"target":34963
		},
		{
			"buffer":0,
			"byteOffset":36024,
			"byteLength":288,
			"target":34962
		}
	],
	"nodes":[
		{
			"children":[1,4
			],
			"name":"Root"
		},
		{
			"children":[2,3
			],
			"matrix":[1,0,0,0,0,1,0,0,0,0,1,0,-5.03728008,51,-44.9171638,1
			],
			"name":"hkr-ventPipe-01"
		},
		{
			"name":"mesh",
			"mesh":0
		},
		{
			"name":"collision",
			"mesh":1
		},
		{
			"children":[5,6
			],
			"name":"hkr-building-01"
		},
		{
			"name":"mesh",
			"mesh":2
		},
		{
			"name":"collision",
			"mesh":3
		}
	],
	"meshes":[
		{
			"primitives":[
				{
					"attributes":{
						"NORMAL":2,
						"POSITION":1
					},
					"indices":0,
					"material":0
				}
			]
		},
		{
			"primitives":[
				{
					"attributes":{
						"POSITION":4
					},
					"indices":3
				}
			]
		},
		{
			"primitives":[
				{
					"attributes":{
						"NORMAL":7,
						"POSITION":6
					},
					"indices":5,
					"material":1
				}
			]
		},
		{
			"primitives":[
				{
					"attributes":{
						"POSITION":9
					},
					"indices":8
				}
			]
		}
	],
	"materials":[
		{
			"name":"Material_1",
			"pbrMetallicRoughness":{
				"metallicFactor":0,
				"roughnessFactor":0.65200001
			}
		},
		{
			"name":"Material_1",
			"pbrMetallicRoughness":{
				"metallicFactor":0,
				"roughnessFactor":0.65200001
			}
		}
	],
	"scenes":[
		{
			"nodes":[0
			]
		}
	],
	"scene":0
}
